<svg id="Capa_1" data-name="Capa 1" xmlns="http://www.w3.org/2000/svg" xmlns:xlink="http://www.w3.org/1999/xlink" viewBox="0 0 500 500"><defs><style>.cls-1{fill:#81dfff;}.cls-2{fill:#b7edff;}.cls-3{opacity:0.8;}.cls-4{fill:#454c61;}.cls-5{fill:#30384f;}.cls-47,.cls-48,.cls-55,.cls-59,.cls-6,.cls-63,.cls-64,.cls-65{fill:#fff;}.cls-7{fill:#f5d533;}.cls-8{fill:#ff6469;}.cls-9{fill:#75c1f8;}.cls-10{fill:#b8dffb;}.cls-11{fill:#3fa9f5;}.cls-12{fill:#828ba4;}.cls-12,.cls-25,.cls-34{opacity:0.3;}.cls-12,.cls-25,.cls-34,.cls-37,.cls-46,.cls-47,.cls-48,.cls-55,.cls-59,.cls-63,.cls-64,.cls-65{isolation:isolate;}.cls-13{fill:#4f5669;}.cls-14{fill:#3a4258;}.cls-15{fill:#7f8492;}.cls-16{fill:#6e7484;}.cls-17,.cls-37{fill:#07c;}.cls-18{fill:#eaecf0;}.cls-19{fill:#c8ccd7;}.cls-20{fill:#dfe2e8;}.cls-21{fill:#d0d3dc;}.cls-22{fill:#fcfcfd;}.cls-23{fill:#c0c4d1;}.cls-24{fill:#a7adbf;}.cls-25,.cls-28{fill:#616c8c;}.cls-26{fill:#b0b5c5;}.cls-27{fill:#9098ae;}.cls-29{fill:#4d4d4d;}.cls-30{fill:#333;}.cls-31{fill:#ffc1c3;}.cls-32{fill:#69bcf7;}.cls-33{fill:#596072;}.cls-34{fill:#878fa8;}.cls-35{fill:#626879;}.cls-36{fill:#cbced9;}.cls-37{opacity:0.6;}.cls-38{fill:url(#Degradado_sin_nombre);}.cls-39{fill:#666c7d;}.cls-40{fill:#c6cad6;}.cls-41{fill:#84c8f9;}.cls-42{fill:#f3f3f4;}.cls-43{fill:#8189a3;}.cls-44{fill:#e2e3e6;}.cls-45{fill:url(#Degradado_sin_nombre_2);}.cls-47,.cls-48{font-size:10.81px;}.cls-47,.cls-48,.cls-55,.cls-59,.cls-63,.cls-64,.cls-65{font-family:ArialMT, Arial;}.cls-47{letter-spacing:0.2em;}.cls-48{letter-spacing:0.16em;}.cls-49{fill:#9fa5b9;}.cls-50{fill:#fbeda7;}.cls-51{fill:#f9e88f;}.cls-52{fill:#79829d;}.cls-53{fill:#b4ecff;}.cls-54{fill:#95d0f9;}.cls-55{font-size:13px;letter-spacing:0.05em;}.cls-56{fill:#ffbcbe;}.cls-57{fill:#ffaaac;}.cls-58{fill:#ff7b80;}.cls-59{font-size:9px;letter-spacing:0.05em;}.cls-60{letter-spacing:0.01em;}.cls-61{fill:#898e9b;}.cls-62{fill:#a9d8fa;}.cls-63,.cls-65{font-size:12px;}.cls-63{letter-spacing:-0.02em;}.cls-64{font-size:7px;letter-spacing:0.05em;}.cls-65{letter-spacing:0.05em;}.cls-66{letter-spacing:0.03em;}</style><linearGradient id="Degradado_sin_nombre" x1="637.05" y1="410.56" x2="668.96" y2="320.95" gradientTransform="matrix(0.71, -0.71, -0.71, -0.71, -17.85, 972.27)" gradientUnits="userSpaceOnUse"><stop offset="0" stop-color="#30384f" stop-opacity="0"/><stop offset="1" stop-color="#edfaff"/></linearGradient><linearGradient id="Degradado_sin_nombre_2" x1="215.11" y1="406.44" x2="230.84" y2="310.44" gradientTransform="matrix(1, 0, 0, -1, 0, 500)" gradientUnits="userSpaceOnUse"><stop offset="0" stop-color="#3fa9f5"/><stop offset="1" stop-color="#65d8ff"/></linearGradient></defs><title>fullstack3</title><g id="bg"><rect class="cls-1" width="500" height="500"/><ellipse class="cls-2" cx="252.82" cy="326.31" rx="214.66" ry="122.9"/></g><g id="code2" class="cls-3"><polygon class="cls-4" points="186.7 140.82 116.7 182.13 115.86 181.71 115.86 130.59 186.7 89.69 187.52 90.12 186.7 140.82"/><polygon class="cls-5" points="187.54 141.24 116.7 182.13 116.7 131.01 187.54 90.12 187.54 141.24"/><polygon class="cls-6" points="123.35 136.6 121.38 137.74 121.38 136.13 123.35 134.99 123.35 136.6"/><polygon class="cls-7" points="152.17 119.97 125.55 135.34 125.55 133.72 152.17 118.36 152.17 119.97"/><polygon class="cls-6" points="123.35 140.38 121.38 141.52 121.38 139.91 123.35 138.77 123.35 140.38"/><polygon class="cls-7" points="137.84 132.02 125.55 139.12 125.55 137.5 137.84 130.41 137.84 132.02"/><polygon class="cls-6" points="123.35 144.16 121.38 145.3 121.38 143.69 123.35 142.55 123.35 144.16"/><polygon class="cls-7" points="144.21 132.13 125.55 142.9 125.55 141.28 144.21 130.51 144.21 132.13"/><polygon class="cls-6" points="123.35 147.94 121.38 149.08 121.38 147.47 123.35 146.33 123.35 147.94"/><polygon class="cls-7" points="147.82 133.82 125.55 146.68 125.55 145.06 147.82 132.21 147.82 133.82"/><polygon class="cls-6" points="123.35 153.44 121.38 154.58 121.38 152.97 123.35 151.83 123.35 153.44"/><polygon class="cls-8" points="139.65 144.03 125.55 152.18 125.55 150.56 139.65 142.42 139.65 144.03"/><polygon class="cls-6" points="123.35 157.22 121.38 158.36 121.38 156.75 123.35 155.61 123.35 157.22"/><polygon class="cls-8" points="151.43 141.01 125.55 155.96 125.55 154.34 151.43 139.4 151.43 141.01"/><polygon class="cls-6" points="123.35 161 121.38 162.14 121.38 160.53 123.35 159.39 123.35 161"/><polygon class="cls-8" points="135.75 153.85 125.55 159.74 125.55 158.12 135.75 152.24 135.75 153.85"/><polygon class="cls-6" points="123.35 164.78 121.38 165.92 121.38 164.31 123.35 163.17 123.35 164.78"/><polygon class="cls-8" points="143.8 152.98 125.55 163.52 125.55 161.91 143.8 151.37 143.8 152.98"/><polygon class="cls-6" points="165.31 112 166.81 111.13 166.81 109.91 165.31 110.77 165.31 112"/><polygon class="cls-6" points="178.94 102.9 168.48 108.94 168.48 110.17 178.94 104.13 178.94 102.9"/><polygon class="cls-6" points="165.31 114.88 166.81 114.02 166.81 112.79 165.31 113.66 165.31 114.88"/><polygon class="cls-6" points="173.31 109.03 168.48 111.82 168.48 113.05 173.31 110.26 173.31 109.03"/><polygon class="cls-6" points="165.31 117.77 166.81 116.9 166.81 115.67 165.31 116.54 165.31 117.77"/><polygon class="cls-6" points="175.81 110.47 168.48 114.7 168.48 115.93 175.81 111.7 175.81 110.47"/><polygon class="cls-6" points="165.31 120.65 166.81 119.78 166.81 118.55 165.31 119.42 165.31 120.65"/><polygon class="cls-6" points="177.23 112.54 168.48 117.59 168.48 118.82 177.23 113.77 177.23 112.54"/><polygon class="cls-6" points="165.31 124.84 166.81 123.98 166.81 122.75 165.31 123.61 165.31 124.84"/><polygon class="cls-6" points="175.3 117.85 168.49 121.78 168.49 123.01 175.3 119.08 175.3 117.85"/><polygon class="cls-6" points="165.31 127.73 166.81 126.86 166.81 125.63 165.31 126.5 165.31 127.73"/><polygon class="cls-6" points="168.49 124.66 168.49 125.89 180.99 118.67 180.99 117.44 168.49 124.66"/><polygon class="cls-6" points="165.31 130.61 166.81 129.74 166.81 128.51 165.31 129.38 165.31 130.61"/><polygon class="cls-6" points="173.41 124.7 168.49 127.55 168.49 128.78 173.41 125.93 173.41 124.7"/><polygon class="cls-6" points="165.31 133.49 166.81 132.63 166.81 131.4 165.31 132.26 165.31 133.49"/><polygon class="cls-6" points="168.49 131.66 177.3 126.57 177.3 125.34 168.49 130.43 168.49 131.66"/></g><g id="back-monitor" class="cls-3"><polygon class="cls-9" points="224.82 139.7 154.83 181.01 153.98 180.59 153.98 129.47 224.82 88.58 225.65 89 224.82 139.7"/><polygon class="cls-10" points="225.7 140.19 154.86 181.08 154.86 129.96 225.7 89.07 225.7 140.19"/><polygon class="cls-11" points="212.6 134.49 167.96 160.26 167.96 136.37 212.6 110.6 212.6 134.49"/><polygon class="cls-6" points="209 118.4 171.57 140.01 171.57 138.98 209 117.37 209 118.4"/><polygon class="cls-6" points="209 122.01 171.57 143.62 171.57 142.59 209 120.98 209 122.01"/><polygon class="cls-6" points="209 125.62 171.57 147.22 171.57 146.19 209 124.59 209 125.62"/><polygon class="cls-11" points="225.7 94 154.86 134.89 154.86 129.96 225.7 89.07 225.7 94"/></g><g id="personaje"><path class="cls-12" d="M335.13,239.73l-184.8,106.7h-.12l-18,3.81a4.21,4.21,0,0,0-4.88,3.39v0h0a4.21,4.21,0,0,0,3.39,4.88h0l20.68-4.37,80.65,46.56-11.72,2.48a4.22,4.22,0,0,0-4.89,3.41h0a4.23,4.23,0,0,0,3.42,4.89l23.31-4.93,6.64,3.83v.06l42.59-25.42a18.43,18.43,0,0,0-.09,3.15c.9,15.95,21.72,27.75,46.51,26.36s44.18-15.44,43.28-31.39c-.82-14.68-18.51-25.83-40.64-26.44l93.25-53v-7h0Z"/><path class="cls-5" d="M302.29,336l.59,8.06a8.67,8.67,0,0,1-3,8c-4,3.37-10,2.09-14.35,0-3.48-1.67-13.87-6.36-18.25-13.41-1.08-1.74-3.6-5.68,1-8.13,3-1.59,9.2.86,13.62,1.87,2.71.62,7.1,1.29,7.1,1.29s3.93-2.64,7.91-1S302.57,332.69,302.29,336Z"/><path class="cls-13" d="M285.47,327.76s-1,8.23,6.76,10,13.21-.48,14.12-4.86c.57-2.71,3.19-28.17,4.79-42.43l-20.41-15.84Z"/><path class="cls-13" d="M365.69,295.63c-1-7.16-3.63-14-4.45-21.19L343,280s-28.31-12.41-36.26-13.5c-4.58-.62-8.55-.84-12.77,3a12.48,12.48,0,0,0-4.35,10.5l.36,3.36,30.84,16.5c0-.06,11.61,6.38,17.46,8.07,9,2.6,20.9.48,25.52-2.11.63-.36,1.47-.81,2.44-1.32A69.15,69.15,0,0,0,365.69,295.63Z"/><path class="cls-14" d="M277,353l.59,8.06a8.64,8.64,0,0,1-3,8c-4,3.38-10,2.1-14.36,0-3.47-1.66-13.87-6.36-18.25-13.41-1.08-1.74-3.6-5.67,1-8.13,3-1.58,9.2.87,13.62,1.87,2.71.62,7.1,1.3,7.1,1.3s3.93-2.64,7.91-1S277.27,349.67,277,353Z"/><path class="cls-5" d="M369,397.61c-1.13-.66-2.13-.59-2.74.05l-.06-.09-5.62,3.16L365,409l6.32-3.09c.63-.42,1-1.21,1-2.81A6.75,6.75,0,0,0,369,397.61Z"/><ellipse class="cls-5" cx="362.81" cy="404.87" rx="2.75" ry="4.77" transform="translate(-153.83 235.65) rotate(-30)"/><path class="cls-5" d="M301,399.29a2.18,2.18,0,0,1,2.75,0l.06-.08,5.61,3.15L305,410.69l-6.32-3.08c-.63-.43-1-1.22-1-2.81A6.8,6.8,0,0,1,301,399.29Z"/><path class="cls-5" d="M303.79,408.5c0,2.15,1.51,3,3.37,1.95a7.48,7.48,0,0,0,3.38-5.84c0-2.16-1.51-3-3.38-1.95A7.46,7.46,0,0,0,303.79,408.5Z"/><path class="cls-5" d="M363.86,369.54a2.17,2.17,0,0,1,2.74,0l.06-.08,5.62,3.15-4.42,8.28-6.32-3.08c-.63-.42-1-1.22-1-2.81A6.78,6.78,0,0,1,363.86,369.54Z"/><path class="cls-5" d="M366.66,378.75c0,2.15,1.51,3,3.37,1.95a7.46,7.46,0,0,0,3.37-5.84c0-2.16-1.51-3-3.37-1.95A7.46,7.46,0,0,0,366.66,378.75Z"/><path class="cls-5" d="M311.17,369.54a2.18,2.18,0,0,0-2.75,0l-.06-.08-5.61,3.15,4.42,8.28,6.31-3.08c.64-.42,1-1.22,1-2.81A6.81,6.81,0,0,0,311.17,369.54Z"/><path class="cls-5" d="M308.37,378.75c0,2.15-1.51,3-3.38,1.95a7.46,7.46,0,0,1-3.37-5.84c0-2.16,1.51-3,3.38-1.95A7.46,7.46,0,0,1,308.37,378.75Z"/><path class="cls-15" d="M337.27,380.08,308.32,366a3.67,3.67,0,0,0-3.56.21,4,4,0,0,0-2.26,2.64v2.06l29.88,15Z"/><path class="cls-15" d="M333.62,381.2,364.26,366a3.32,3.32,0,0,1,3.4.21c2.06,1.12,2.08,2.64,2.08,2.64v2.06L338.35,387Z"/><path class="cls-4" d="M334.56,371.28h1.3a5.9,5.9,0,0,1,5.9,5.9v11.88h-13.1V377.18a5.9,5.9,0,0,1,5.9-5.9Z"/><path class="cls-5" d="M332.33,356.47v16.69a3.34,3.34,0,0,0,3.32,3.36h.09c3.37,0,2.66-3,2.66-3v-17Z"/><path class="cls-4" d="M328.79,341.19v15.72a8.25,8.25,0,0,0,6.14,2.8,9.57,9.57,0,0,0,6.5-2.8v-18Z"/><path class="cls-16" d="M259.33,346s-1,8,6.57,9.68,12.83-.47,13.72-4.72c.55-2.63,3.1-27.37,4.65-41.22l-19.83-15.4Z"/><path class="cls-17" d="M311.17,303.3c8-5.14,13.52-8,20.21-9,9.63-1.4,22.36,2.9,29.46,5.89,4.59,1.93,18.15,7.67,15,15.16-2.26,5.32-13.37,9.17-21.51,13.1s-18.71,10.85-27.69,11.41-18.81-4.21-26.95-9.54-7.29-13-2-17.78C302,308.7,304.15,307.79,311.17,303.3Z"/><path class="cls-16" d="M366.79,282.08,317.68,297s-28.31-12.41-36.26-13.49c-4.57-.62-8.55-.84-12.76,3A12.5,12.5,0,0,0,264.32,297l.36,3.37,30.84,16.5c0-.06,11.61,6.37,17.47,8.07,8.95,2.6,20.89.48,25.51-2.12s19.63-9.82,25.4-16.17S366.79,282.08,366.79,282.08Z"/><path class="cls-5" d="M293.4,319.86v7.86a19.05,19.05,0,0,0,9.78,12.53c8.42,4.49,21.53,8.24,27.89,5.8s30.33-14.78,35.56-17.58,7.87-4.31,8.8-6.74.19-9.92.19-9.92S362,322.67,346.25,327.9s-21.75,8.24-29.42,6.37S293.4,319.86,293.4,319.86Z"/><path class="cls-4" d="M327.73,344.56c-2.33-3.73-.79-7.84,1.72-11.06-4.87,1.38-8.52,1.76-12.62.77-7.67-1.87-23.43-14.41-23.43-14.41v7.86a19.05,19.05,0,0,0,9.78,12.53c7.81,4.17,19.66,7.69,26.41,6.23A16.87,16.87,0,0,1,327.73,344.56Z"/><path class="cls-15" d="M301.07,400.85s-2.67-4.31,1.45-5.8,27-12.91,27-12.91,4.93.74,4.93,2.62a20.33,20.33,0,0,0,.56,4.11s-24.88,11.6-27.31,12.91S303.22,402.16,301.07,400.85Z"/><path class="cls-15" d="M371,400.85s2.11-4.31-2-5.8-26.82-13.48-26.82-13.48-4.75.75-4.75,2.62v4.12s24.7,12.16,27.13,13.47S368.82,402.16,371,400.85Z"/><path class="cls-18" d="M219.66,411.25h0a4.22,4.22,0,0,1-4.22-4.22h0V311.77h8.43V407a4.2,4.2,0,0,1-4.17,4.25Z"/><path class="cls-19" d="M219.42,311.77v99.45h.24a4.2,4.2,0,0,0,4.21-4.21h0V311.77Z"/><path class="cls-18" d="M131.4,358.17h0a4.22,4.22,0,0,1-4.22-4.22h0V258.69h8.43V354A4.22,4.22,0,0,1,131.4,358.17Z"/><path class="cls-19" d="M131.16,258.69v99.46h.24a4.22,4.22,0,0,0,4.21-4.22V258.69Z"/><path class="cls-18" d="M383.13,210.6h8.43v95.26a4.22,4.22,0,0,1-4.22,4.22h0a4.22,4.22,0,0,1-4.22-4.22h0V210.6Z"/><path class="cls-19" d="M387.11,210.6v99.45h.23a4.22,4.22,0,0,0,4.22-4.21V210.6Z"/><path class="cls-20" d="M299.08,257h0a4.2,4.2,0,0,1-4.21-4.21h0V157.52h8.43v95.26a4.22,4.22,0,0,1-4.22,4.22Z"/><path class="cls-21" d="M298.85,157.52V257h.23a4.22,4.22,0,0,0,4.22-4.22h0V157.52Z"/><polygon class="cls-22" points="399.83 207.85 214.93 314.6 116.31 257.65 301.2 150.9 399.83 207.85"/><polygon class="cls-23" points="214.91 321.61 214.91 314.57 116.28 257.63 116.28 264.67 214.91 321.61"/><polygon class="cls-24" points="399.79 214.92 399.79 207.87 214.89 314.62 214.89 321.67 399.79 214.92"/><polygon class="cls-25" points="303.84 212.97 241.14 249.81 214.75 236 215.37 241.53 241.46 253.03 304.06 216.76 303.84 212.97"/><polygon class="cls-26" points="214.75 235 215.37 240.53 241.46 252.03 241.14 248.81 214.75 235"/><polygon class="cls-6" points="279.45 198.34 303.87 212.09 241.14 248.81 214.75 235 279.45 198.34"/><polygon class="cls-27" points="303.84 211.97 241.14 248.81 241.46 252.03 304.06 215.76 303.84 211.97"/><polygon class="cls-28" points="223.73 235.51 221.34 234.14 223.84 232.69 226.22 234.06 223.73 235.51"/><polygon class="cls-28" points="228.59 232.69 226.21 231.32 228.7 229.87 231.09 231.24 228.59 232.69"/><polygon class="cls-28" points="231.71 230.88 229.32 229.51 231.82 228.06 234.21 229.44 231.71 230.88"/><polygon class="cls-28" points="234.83 229.07 232.44 227.7 234.94 226.26 237.32 227.63 234.83 229.07"/><polygon class="cls-28" points="239.69 226.26 237.31 224.88 239.8 223.44 242.19 224.81 239.69 226.26"/><polygon class="cls-28" points="242.81 224.45 240.43 223.08 242.92 221.63 245.31 223 242.81 224.45"/><polygon class="cls-28" points="245.93 222.64 243.54 221.27 246.04 219.83 248.43 221.2 245.93 222.64"/><polygon class="cls-28" points="250.8 219.82 248.41 218.45 250.9 217.01 253.29 218.38 250.8 219.82"/><polygon class="cls-28" points="253.91 218.02 251.53 216.65 254.02 215.2 256.41 216.57 253.91 218.02"/><polygon class="cls-28" points="257.03 216.21 254.65 214.84 257.14 213.39 259.53 214.77 257.03 216.21"/><polygon class="cls-28" points="262.02 213.32 259.64 211.95 262.13 210.5 264.52 211.88 262.02 213.32"/><polygon class="cls-28" points="265 211.52 262.65 210.11 265.21 208.69 267.56 210.1 265 211.52"/><polygon class="cls-28" points="268.26 209.71 265.87 208.34 268.37 206.89 270.75 208.26 268.26 209.71"/><polygon class="cls-28" points="272.25 207.4 269.87 206.02 272.36 204.58 274.75 205.95 272.25 207.4"/><polygon class="cls-28" points="275.37 205.59 272.98 204.22 275.48 202.77 277.87 204.14 275.37 205.59"/><polygon class="cls-28" points="278.49 203.78 276.1 202.41 278.6 200.96 280.98 202.34 278.49 203.78"/><polygon class="cls-28" points="282.9 206.32 280.52 204.95 283.01 203.5 285.4 204.87 282.9 206.32"/><polygon class="cls-28" points="285.89 208.03 283.5 206.66 286 205.22 288.38 206.59 285.89 208.03"/><polygon class="cls-28" points="279.79 208.13 277.4 206.75 279.89 205.31 282.28 206.68 279.79 208.13"/><polygon class="cls-28" points="282.77 209.84 280.38 208.47 282.88 207.02 285.26 208.39 282.77 209.84"/><polygon class="cls-28" points="276.67 209.93 274.28 208.56 276.77 207.12 279.16 208.49 276.67 209.93"/><polygon class="cls-28" points="279.65 211.65 277.26 210.28 279.76 208.83 282.14 210.2 279.65 211.65"/><polygon class="cls-28" points="294.72 213.11 292.33 211.74 294.83 210.29 297.21 211.66 294.72 213.11"/><polygon class="cls-28" points="291.6 214.91 289.21 213.54 291.71 212.1 294.1 213.47 291.6 214.91"/><polygon class="cls-28" points="288.48 216.72 286.1 215.35 288.59 213.9 290.98 215.28 288.48 216.72"/><polygon class="cls-28" points="288.62 213.2 286.23 211.83 288.72 210.38 291.11 211.75 288.62 213.2"/><polygon class="cls-28" points="268.56 214.63 266.17 213.26 268.67 211.81 271.05 213.18 268.56 214.63"/><polygon class="cls-28" points="265.44 216.44 263.05 215.06 265.55 213.62 267.94 214.99 265.44 216.44"/><polygon class="cls-28" points="262.32 218.24 259.94 216.87 262.43 215.43 264.82 216.8 262.32 218.24"/><polygon class="cls-28" points="259.2 220.05 256.82 218.68 259.31 217.23 261.7 218.6 259.2 220.05"/><polygon class="cls-28" points="256.08 221.86 253.7 220.49 256.19 219.04 258.58 220.41 256.08 221.86"/><polygon class="cls-28" points="252.97 223.66 250.58 222.29 253.07 220.85 255.46 222.22 252.97 223.66"/><polygon class="cls-28" points="249.85 225.47 247.46 224.1 249.96 222.65 252.34 224.02 249.85 225.47"/><polygon class="cls-28" points="246.73 227.28 244.34 225.91 246.84 224.46 249.22 225.83 246.73 227.28"/><polygon class="cls-28" points="243.61 229.08 241.22 227.71 243.72 226.27 246.11 227.64 243.61 229.08"/><polygon class="cls-28" points="240.49 230.89 238.11 229.52 240.72 228 243.11 229.37 240.49 230.89"/><polygon class="cls-28" points="237.37 232.7 234.99 231.32 237.61 229.81 239.99 231.18 237.37 232.7"/><polygon class="cls-28" points="234.25 234.5 231.87 233.13 234.49 231.61 236.88 232.99 234.25 234.5"/><polygon class="cls-28" points="231.26 236.24 228.88 234.87 231.37 233.42 233.76 234.79 231.26 236.24"/><polygon class="cls-28" points="228.14 238.04 225.76 236.67 228.25 235.23 230.64 236.6 228.14 238.04"/><polygon class="cls-28" points="235.74 237.09 233.35 235.71 235.85 234.27 238.24 235.64 235.74 237.09"/><polygon class="cls-28" points="238.86 235.28 236.47 233.91 238.97 232.46 241.35 233.83 238.86 235.28"/><polygon class="cls-28" points="241.98 233.47 239.59 232.1 242.09 230.65 244.47 232.03 241.98 233.47"/><polygon class="cls-28" points="245.1 231.66 242.71 230.29 245.21 228.85 247.59 230.22 245.1 231.66"/><polygon class="cls-28" points="248.22 229.86 245.83 228.49 248.32 227.04 250.71 228.41 248.22 229.86"/><polygon class="cls-28" points="251.33 228.05 248.95 226.68 251.44 225.23 253.83 226.61 251.33 228.05"/><polygon class="cls-28" points="254.45 226.24 252.07 224.87 254.56 223.43 256.95 224.8 254.45 226.24"/><polygon class="cls-28" points="257.45 224.51 255.06 223.14 257.68 221.62 260.07 222.99 257.45 224.51"/><polygon class="cls-28" points="260.56 222.7 258.18 221.33 260.8 219.81 263.19 221.19 260.56 222.7"/><polygon class="cls-28" points="263.68 220.9 261.3 219.53 263.92 218.01 266.3 219.38 263.68 220.9"/><polygon class="cls-28" points="266.8 219.09 264.42 217.72 266.91 216.27 269.3 217.64 266.8 219.09"/><polygon class="cls-28" points="269.92 217.28 267.53 215.91 270.03 214.47 272.42 215.84 269.92 217.28"/><polygon class="cls-28" points="270.78 220.23 268.28 218.79 270.77 217.34 273.28 218.78 270.78 220.23"/><polygon class="cls-28" points="267.67 222.03 265.16 220.59 267.65 219.15 270.16 220.59 267.67 222.03"/><polygon class="cls-28" points="264.55 223.84 262.04 222.4 264.54 220.95 267.04 222.39 264.55 223.84"/><polygon class="cls-28" points="261.43 225.65 258.92 224.21 261.42 222.76 263.92 224.2 261.43 225.65"/><polygon class="cls-28" points="258.31 227.45 255.8 226.01 258.3 224.57 260.8 226.01 258.31 227.45"/><polygon class="cls-28" points="255.19 229.26 252.69 227.82 255.18 226.37 257.69 227.81 255.19 229.26"/><polygon class="cls-28" points="252.07 231.07 249.57 229.63 252.06 228.18 254.57 229.62 252.07 231.07"/><polygon class="cls-28" points="248.95 232.87 246.45 231.43 248.94 229.99 251.45 231.43 248.95 232.87"/><polygon class="cls-28" points="245.84 234.68 243.33 233.24 245.95 231.72 248.46 233.16 245.84 234.68"/><polygon class="cls-28" points="242.72 236.49 240.21 235.05 242.83 233.53 245.34 234.97 242.72 236.49"/><polygon class="cls-28" points="239.6 238.29 237.09 236.85 239.71 235.34 242.22 236.78 239.6 238.29"/><polygon class="cls-28" points="244.08 239 241.7 237.63 244.19 236.18 246.58 237.55 244.08 239"/><polygon class="cls-28" points="247.2 237.19 244.82 235.82 247.31 234.38 249.7 235.75 247.2 237.19"/><polygon class="cls-28" points="250.32 235.39 247.94 234.01 250.43 232.57 252.82 233.94 250.32 235.39"/><polygon class="cls-28" points="253.44 233.58 251.05 232.21 253.55 230.76 255.94 232.13 253.44 233.58"/><polygon class="cls-28" points="256.56 231.77 254.17 230.4 256.67 228.96 259.05 230.33 256.56 231.77"/><polygon class="cls-28" points="259.68 229.97 257.29 228.59 259.79 227.15 262.17 228.52 259.68 229.97"/><polygon class="cls-28" points="262.8 228.16 260.41 226.79 262.9 225.34 265.29 226.71 262.8 228.16"/><polygon class="cls-28" points="265.91 226.35 263.53 224.98 266.02 223.53 268.41 224.91 265.91 226.35"/><polygon class="cls-28" points="269.03 224.55 266.65 223.17 269.14 221.73 271.53 223.1 269.03 224.55"/><polygon class="cls-28" points="272.15 222.74 269.76 221.37 272.26 219.92 274.65 221.29 272.15 222.74"/><polygon class="cls-28" points="281.51 217.32 279.12 215.95 281.61 214.5 284 215.87 281.51 217.32"/><polygon class="cls-28" points="282.87 219.97 280.48 218.6 284.6 216.22 286.98 217.59 282.87 219.97"/><polygon class="cls-28" points="278.25 222.65 275.87 221.28 279.86 218.96 282.24 220.33 278.25 222.65"/><polygon class="cls-28" points="273.64 225.32 271.25 223.95 275.24 221.64 277.63 223.01 273.64 225.32"/><polygon class="cls-28" points="249.19 239.49 246.8 238.11 250.79 235.8 253.18 237.17 249.19 239.49"/><polygon class="cls-28" points="244.57 242.16 242.19 240.79 246.18 238.47 248.56 239.85 244.57 242.16"/><polygon class="cls-28" points="239.96 244.83 237.57 243.46 241.56 241.15 243.95 242.52 239.96 244.83"/><polygon class="cls-28" points="275.27 220.93 272.88 219.56 278.37 216.38 280.76 217.75 275.27 220.93"/><polygon class="cls-28" points="271.68 212.82 269.29 211.45 272.78 209.43 275.17 210.8 271.68 212.82"/><polygon class="cls-28" points="231.13 239.76 228.74 238.39 232.73 236.07 235.12 237.45 231.13 239.76"/><polygon class="cls-28" points="236.97 243.12 234.59 241.75 241.07 237.99 243.46 239.36 236.97 243.12"/><polygon class="cls-28" points="234.11 241.47 231.6 240.03 236.59 237.14 239.1 238.58 234.11 241.47"/><polygon class="cls-28" points="253.8 236.81 251.42 235.44 270.63 224.31 273.01 225.68 253.8 236.81"/><path class="cls-28" d="M273.78,218.35,271.4,217l1.7-1c.15-.09.13-.18.1-.29s-.12,0-.12,0h0c0-.06.06-.09,0-.13l-2.46-1.45,5.12-3,5.26,3Z"/><path class="cls-25" d="M229.24,235.17s3,1.45,3.62,3.11a11,11,0,0,0,4.87,5.58,16.65,16.65,0,0,0,4.86,1.66s2.48,2.17,4.34,3.51,23.59,13.76,27.52,15.11,14.17,1.45,20.48.2A101.09,101.09,0,0,0,307.14,261s-.1-5.17-6.31-7.24-25.14-3.2-27.73-4.86S248,238.17,248,238.17s-14.9-9.31-16.56-8.07S229.24,235.17,229.24,235.17Z"/><path class="cls-25" d="M272.9,208.28a7.15,7.15,0,0,0,3.2,1.86c2.28.72,3.42.83,3.73,2.07s-6.21.82-6.21.82a3.17,3.17,0,0,0,2.07,1.76c1.55.42,2.38,1.35,3.62,2.28a11.1,11.1,0,0,0,5.59,1.55,6.14,6.14,0,0,1,2.41.31l.35,1.86,26.41,12.42,5.28-3.93S304.55,217,299,215.83s-15-6-15.52-6.21-7.57-4.44-8.08-4S272.9,208.28,272.9,208.28Z"/><path class="cls-29" d="M336.15,301.9a19.71,19.71,0,0,1,.56-20.77c8.42-10.67,21.89-11.79,33.12-19.08,2.36-1.43,6.32-2,8.18-.17-1-4.68-3.39-5.55-5-5.64-3.56-.18-6.29,2.2-19.27,8.61-15.53,7.67-18.15,6.92-21.71,9.92s-5.61,10.1-5,17.77,6.17,13.85,10.66,13.66a11.67,11.67,0,0,0,3.05-.52A8,8,0,0,1,336.15,301.9Z"/><path class="cls-30" d="M369.83,262.05c-11.23,7.29-24.7,8.41-33.12,19.08a19.71,19.71,0,0,0-.56,20.77,8,8,0,0,0,4.54,3.78c3.24-1,7.24-3.44,18.47-8.27,8.62-3.71,13.2-6.92,15.72-11.6,1.8-3.35,2.48-7.36,3.18-13.29a34.2,34.2,0,0,0-.05-10.64C376.15,260,372.19,260.62,369.83,262.05Z"/><path class="cls-31" d="M292.2,214.56s-3.72-7.87-5.34-9-5.53-1.1-8.18-1.35c-2-.2-6.17.7-6.45,2.47s1.07,2.08,2.84,2.67,4.27,1.12,5.05,1.76.68,1.76-.71,1.48-3.35-1.73-4.94-1.32c-1.26.32-1.54,2.22,1.12,2.93s2,1.32,3.61,2,3.63,2,5.47,1.8c2.13-.22,6.36,2.73,6.36,2.73l5.19-4.15Z"/><path class="cls-11" d="M348.7,212.73,327,218l-27.94-6.85a9,9,0,0,0-9.82,2.48c-3.34,4.84-1.82,6.48-1.82,6.48L324,236.41s5.17,3,13.82,1.62c8-1.29,31.5,4.68,31.5,4.68a30.31,30.31,0,0,0-1.64-19.91C362.75,211.8,352.07,211.24,348.7,212.73Z"/><path class="cls-32" d="M343.08,212.85s-15,3.4-24.12,10.42c-8,6.14-12.71,20.39-11.95,45.67.54,17.61-.38,18.1.71,23.89.67,3.56,4,8.81,9.13,11.47,6.14,3.16,11.77,5.61,20.38,3.75s28.1-11.71,28.1-11.71,5.93-13.25,5.93-20,1-31.2-1.71-43.25C365,212.73,349.17,211.5,343.08,212.85Z"/><path class="cls-31" d="M345,204.85l1.52,13.92s-.51,5.69-8.54,7.11c-8.25,1.45-9.77-4.14-9.77-4.14l.2-3.33-1.06-7.67Z"/><path class="cls-31" d="M313.59,179.47s-1.5,14.46-1.26,19.28c.23,4.39,2.24,13.24,8.37,15.47,5.1,1.86,11.12-1.31,17.42-5.74s8.31-5.51,9.24-9.24,7.34-21.64,7.34-21.64Z"/><path class="cls-5" d="M355.34,174.92a17.48,17.48,0,0,0-8.95-12.26c-7.93-4.2-15.86-4-23.06-1.75-6.79,2.11-10,5.24-11.39,8a13,13,0,0,0-1.29,4.13,10.68,10.68,0,0,0,1.16,5.12c1.15,2.26,3.34,3.75,4.95,5.66a9.55,9.55,0,0,1,2.32,5.31,38,38,0,0,1,.2,5.74l2.16.79s-.41-5.18,2.56-5.56c4.55-.58,4.88,6,4.2,7.93-2.91,8.28,1.55,9.79,1.55,9.79,5.18,2.13,10.7,2.68,15.4-.79a24.4,24.4,0,0,0,8.19-11.71C355.51,189.07,356.59,181.39,355.34,174.92Z"/><path class="cls-31" d="M248.06,246.89l-5.12-2.73s-1.51,1.05-4.74-.78c-3.87-2.19-3.68-4.32-5.19-5.61a56.07,56.07,0,0,0-5-3.51c-2.31-1.66.14-5.89,3.64-6a14.28,14.28,0,0,1,6.18,1.4c2.1.84,4.86,3.84,4.86,3.84a27.1,27.1,0,0,0-2.34-3.28c-.76-.74.3-2.35,1.83-1.07s3.88,4.3,4,5.37a27,27,0,0,0,1.27,4.22l4.86,2.81Z"/><path class="cls-11" d="M312.75,230.06l-31.61,16.83-27.76-11s-5.43-2.84-9.43,3.53a7.17,7.17,0,0,0-.29,6.66s23.88,14.62,32.24,17.24c4.13,1.3,8.57,1.76,17.3,1,9.72-.82,17.54-4.33,24-7.61,4.46-2.26,10.22-9.38,8.47-18.1C323.88,229.71,318.37,227.82,312.75,230.06Z"/><path class="cls-17" d="M350.18,260.74c-8.51,3.27-17.4,6.73-20.77,7.67s-7.48,7.85-7.11,15.71,1.7,14.78,4.7,17.59,8.42,5.8,17,1.68,20.39-9.16,23.76-11.6,6.47-5.39,7.67-9a61.17,61.17,0,0,0,2.24-19.64c-.34-7-4.3-13.47-10.85-10.48S357.48,257.93,350.18,260.74Z"/><path class="cls-5" d="M332,274.77c3.56-3,6.18-2.25,21.71-9.92,13-6.41,15.71-8.79,19.27-8.61,2.43.13,6.73,2.06,5,16.28-.7,5.93-1.38,9.94-3.18,13.29-2.52,4.68-7.1,7.89-15.72,11.6-14.78,6.36-17,8.6-21.52,8.79s-10.1-6-10.66-13.66S328.48,277.76,332,274.77Z"/><path class="cls-33" d="M353.35,282.16l9-4.57s2.44-1.48,4.63,6c.85,2.87.6,11.41.62,20.4,0,14.37-.06,30.42-.06,30.42l-9,4.57s-.62-5.87-.67-13.42C357.76,310.05,357.64,286.15,353.35,282.16Z"/><path class="cls-4" d="M353.35,282.16v47.62l-4.81-1.5v6l10,4.7v-46.8s-.22-4.59-2.08-7.55C353.34,279.67,353.35,282.16,353.35,282.16Z"/><path class="cls-34" d="M236.59,264.89l-36.34-20.08a5.32,5.32,0,0,0-4.85,0l-23.8,12.91a2,2,0,0,0-.64,2.75,2,2,0,0,0,.85.76L207.87,282a5.32,5.32,0,0,0,4.85,0l23.58-13.62A2,2,0,0,0,236.59,264.89Z"/><path class="cls-35" d="M236.3,267.42,212.72,281a5.32,5.32,0,0,1-4.85,0l-36.06-20.81a2,2,0,0,1-.21-3.51l23.8-12.91a5.32,5.32,0,0,1,4.85,0l36.34,20.08A2.1,2.1,0,0,1,236.3,267.42Z"/><path class="cls-36" d="M236.3,266.42,212.72,280a5.32,5.32,0,0,1-4.85,0l-36.06-20.81c-1.33-.78-1.33-2,0-2.8l23.59-13.62a5.32,5.32,0,0,1,4.85,0l36.05,20.81C237.64,264.4,237.64,265.65,236.3,266.42Z"/><polygon class="cls-37" points="208.78 277.77 174.24 257.83 197.83 244.21 232.37 264.15 208.78 277.77"/><path class="cls-38" d="M213,253l-15.13-8.74-23.59,13.62L198,271.56a2.83,2.83,0,0,1,.13-.63A29.34,29.34,0,0,1,213,253Z"/><path class="cls-39" d="M223.51,271.49a.61.61,0,0,1,0,1.16,2.2,2.2,0,0,1-2,0,.61.61,0,0,1,0-1.16A2.2,2.2,0,0,1,223.51,271.49Z"/><path class="cls-25" d="M307.9,202.51h0a11.48,11.48,0,0,0-.44-1.52.23.23,0,0,0-.08-.2l-.15-.39c0-.09-.08-.18-.11-.27s-.12-.25-.17-.37l-.15-.3c-.05-.12-.11-.24-.18-.37l-.17-.32a3.72,3.72,0,0,0-.19-.34c-.07-.13-.15-.26-.23-.39l-.17-.28c-.14-.22-.28-.44-.43-.65l-.14-.19c-.11-.16-.23-.31-.34-.45l-.2-.24-.32-.39-.21-.23c-.11-.13-.22-.24-.34-.36l-.22-.22a3.8,3.8,0,0,0-.37-.33l-.22-.2-.42-.32a1.56,1.56,0,0,0-.2-.16,5.35,5.35,0,0,0-.64-.41,25.54,25.54,0,0,0-2.32-1.21h-.08l-.47-.19-.6-.22-.25-.09-.2-.05c-.2-.06-.41-.1-.61-.14l-.37-.08a5.58,5.58,0,0,0-.91-.07h-.28a3.68,3.68,0,0,0-.66.06l-.33.07a3.58,3.58,0,0,0-.64.18l-.3.1a7.84,7.84,0,0,0-.93.43c-.25.14-.48.28-.71.44l-.14.1H292c-.19.14-.37.29-.55.44h0l-.23.2h0l-.34.34-.05.06a5.56,5.56,0,0,0-.53.65h0a5.43,5.43,0,0,0-.53,5.27s6.65,5.31,10.67,6.55,7.76-.42,7.76-2.9A6.3,6.3,0,0,0,307.9,202.51Z"/><path class="cls-40" d="M289.14,199.54s6.8,5.21,10.82,6.45,7.77-.42,7.77-2.9-2.51-7.88-6.22-10-6.19-2.78-9-1.24S287.91,196.14,289.14,199.54Z"/><path class="cls-28" d="M292.54,191.81a6.59,6.59,0,0,0-3.78,5.61v.14s6.93,5.31,11,6.57c3.65,1.12,7.08-.11,7.77-2.18-.56-2.72-2.87-7-6.08-8.9C297.8,190.88,295.32,190.27,292.54,191.81Z"/><path class="cls-6" d="M292.54,191.81a7.93,7.93,0,0,0-3.07,2.93,15.57,15.57,0,0,0,2.47,1c3.65,1.13,7.08-.1,7.77-2.17.25-1,0-1.18-.54-1.78C296.67,190.72,294.7,190.61,292.54,191.81Z"/><path class="cls-41" d="M295.63,192c1.06.64,1.69,1.87,1.42,2a4.48,4.48,0,0,1-2.39-.86c-1.06-.63-1.7-1.27-1.43-1.43A2.72,2.72,0,0,1,295.63,192Z"/><path class="cls-25" d="M203,215.6v.12h0a1.56,1.56,0,0,0,.78.91l13.94,8.05a4.08,4.08,0,0,0,2.08.47h0a4.81,4.81,0,0,0,1-.13h.1l.37-.11a2,2,0,0,0,.42-.2l37.88-21.87a1.93,1.93,0,0,0,.61-.53v-.07a1,1,0,0,0,.15-.34h0a.89.89,0,0,0,0-.23v-2.88l-2.14,1-12.57-7.26a4.35,4.35,0,0,0-4,0l-28,16.15h0l-8,4.61v0c-.75-.75-2.7-.22-2.7-.22v2.42A.8.8,0,0,0,203,215.6Z"/><path class="cls-26" d="M267.93,102.37a16.77,16.77,0,0,0-1.75-1.29c-.45-.26-.77-.42-1-.53l-.14-.06-.2-.08h0a1.94,1.94,0,0,0-1.33.28L182.7,147.36a5.12,5.12,0,0,0-2.32,4v59.2a1.64,1.64,0,0,0,.67,1.49h0s2.25,1.81,2.92,1.79.68-2.35.68-2.35l-.19-.6,79.08-45.66a5.1,5.1,0,0,0,2.32-4V107.68l.18-.13C267.11,106.58,267.93,102.37,267.93,102.37Z"/><path class="cls-42" d="M265.85,114.32v-6.64l.18-.13c1.08-1,1.9-5.18,1.9-5.18a16.77,16.77,0,0,0-1.75-1.29c-.45-.26-.77-.42-1-.53l-.14-.06-.2-.08h0a1.94,1.94,0,0,0-1.33.28L182.7,147.36a4.77,4.77,0,0,0-1.62,1.69l9.54,6.3,75.18-41Z"/><path class="cls-24" d="M260.4,200.88h0a.89.89,0,0,0,0-.23v-2.88l-2.14,1-12.57-7.26a4.35,4.35,0,0,0-4,0l-36,20.76v-.05c-.75-.75-2.7-.22-2.7-.22v2.42a.74.74,0,0,0,0,.21v.12h0a1.56,1.56,0,0,0,.78.91l13.94,8.05a4.41,4.41,0,0,0,4,0l37.88-21.87a1.93,1.93,0,0,0,.61-.53v-.07A1,1,0,0,0,260.4,200.88Z"/><path class="cls-43" d="M260.38,197.72l-2.14,1-12.57-7.26a4.35,4.35,0,0,0-4,0l-28,16.15,6.12,8.5v8a4,4,0,0,0,1.89-.47l37.88-21.87a1.93,1.93,0,0,0,.61-.53v-.07a1,1,0,0,0,.15-.34h0a.89.89,0,0,0,0-.23C260.42,200.36,260.38,197.72,260.38,197.72Z"/><path class="cls-44" d="M259.6,199.27l-37.88,21.87a4.35,4.35,0,0,1-4,0l-13.94-8a1.22,1.22,0,0,1,0-2.3L241.66,189a4.41,4.41,0,0,1,4,0l13.93,8a1.21,1.21,0,0,1,0,2.3Z"/><polygon class="cls-43" points="236.83 202.28 226.74 208.11 226.74 186.44 236.83 180.62 236.83 202.28"/><polygon class="cls-24" points="226.75 207.88 223.24 205.85 223.24 184.19 226.75 186.21 226.75 207.88"/><polygon class="cls-45" points="265.09 163.69 186.24 209.21 186.24 152.31 265.09 106.79 265.09 163.69"/><g class="cls-46"><text class="cls-47" transform="matrix(0.87, -0.5, 0, 1, 200.58, 177.28)">{</text><text class="cls-48" transform="matrix(0.87, -0.5, 0, 1, 206.02, 174.15)">.</text><text class="cls-47" transform="matrix(0.87, -0.5, 0, 1, 209.55, 172.12)">CODE};</text></g><polygon class="cls-42" points="265.15 163.64 186.31 209.17 185.65 208.78 264.49 163.26 265.15 163.64"/><polygon class="cls-49" points="265.31 163.74 264.48 163.27 264.48 106.36 265.31 106.84 265.31 163.74"/><path class="cls-21" d="M268.4,103.73c0-1.48-1-2.08-2.32-1.34l-80.83,46.67a5.1,5.1,0,0,0-2.32,4v59.2c0,1.48,1,2.08,2.32,1.34l80.83-46.67a5.12,5.12,0,0,0,2.32-4ZM186.24,209.21v-56.9l78.85-45.52v56.9Z"/></g><g id="js"><path class="cls-7" d="M237.24,68.93a8.93,8.93,0,0,0-1.27,4.3V97.05c0,2.79,5.72,6.71,8.14,5.32L263,88.66a9,9,0,0,0,3.14-3.35C257.19,80.26,246.66,73.22,237.24,68.93Z"/><path class="cls-50" d="M263,88.66l-18.86,13.71c-2.42,1.39-8.14-2.53-8.14-5.32V73.23a9.64,9.64,0,0,1,4.36-7.57L261,53.75c2.41-1.4,8.43,1.47,8.46,3.94L267.34,81.1A9.64,9.64,0,0,1,263,88.66Z"/><path class="cls-7" d="M237.24,68.93a8.93,8.93,0,0,0-1.27,4.3V97.05c0,2.79,5.72,6.71,8.14,5.32L263,88.66a9,9,0,0,0,3.14-3.35C257.19,80.26,246.66,73.22,237.24,68.93Z"/><path class="cls-51" d="M237.24,68.93a8.93,8.93,0,0,0-1.27,4.3V97.05c0,2.79,5.72,6.71,8.14,5.32L263,88.66a9,9,0,0,0,3.14-3.35C257.19,80.26,246.66,73.22,237.24,68.93Z"/><path class="cls-7" d="M265.29,90.21l-20.64,11.91c-2.41,1.39-4.37.26-4.37-2.52V75.77a9.68,9.68,0,0,1,4.37-7.57l20.64-11.91c2.41-1.39,4.37-.26,4.37,2.52V82.64A9.68,9.68,0,0,1,265.29,90.21Z"/><g class="cls-46"><path class="cls-52" d="M251.07,86.54a2.73,2.73,0,0,1-1.61.44,1.5,1.5,0,0,1-1.12-.64,2.69,2.69,0,0,1-.42-1.6,1,1,0,0,1,.15-.51,1,1,0,0,1,.38-.39.37.37,0,0,1,.37,0,.35.35,0,0,1,.15.34,1.87,1.87,0,0,0,.28,1.1,1.07,1.07,0,0,0,.76.45,1.85,1.85,0,0,0,1.06-.29,3.92,3.92,0,0,0,1.07-.94,5.76,5.76,0,0,0,.75-1.32,4,4,0,0,0,.27-1.41v-8a1,1,0,0,1,.15-.52,1,1,0,0,1,.37-.38c.16-.09.28-.11.38,0a.37.37,0,0,1,.15.35v8a5.55,5.55,0,0,1-.42,2.07,7.49,7.49,0,0,1-1.12,1.94A5.66,5.66,0,0,1,251.07,86.54Z"/><path class="cls-52" d="M259.83,81.5a5.09,5.09,0,0,1-1.58.63,2.31,2.31,0,0,1-1.27-.08,1.54,1.54,0,0,1-.82-.75.5.5,0,0,1,0-.45,1.12,1.12,0,0,1,.34-.48.51.51,0,0,1,.37-.16.29.29,0,0,1,.27.16,1,1,0,0,0,.59.46,1.8,1.8,0,0,0,.93,0,4.13,4.13,0,0,0,1.17-.49,5.11,5.11,0,0,0,1.26-1,4.68,4.68,0,0,0,.87-1.28,3.49,3.49,0,0,0,.31-1.44,1.32,1.32,0,0,0-.6-1.27,2.32,2.32,0,0,0-1.89.22,3.13,3.13,0,0,1-2.45.3,1.66,1.66,0,0,1-.89-1.7,4.49,4.49,0,0,1,.44-1.89,6.71,6.71,0,0,1,1.2-1.76,7.62,7.62,0,0,1,1.75-1.38,3.6,3.6,0,0,1,1.34-.5,2.13,2.13,0,0,1,1.06.1,1.79,1.79,0,0,1,.73.54.56.56,0,0,1,.08.43,1.1,1.1,0,0,1-.23.49.81.81,0,0,1-.41.27.3.3,0,0,1-.32-.12,1.61,1.61,0,0,0-.5-.38,1.31,1.31,0,0,0-.73-.08,3.19,3.19,0,0,0-1,.39,5.52,5.52,0,0,0-1.7,1.5,3.11,3.11,0,0,0-.64,1.87,1.27,1.27,0,0,0,.24.82,1,1,0,0,0,.79.3,4.24,4.24,0,0,0,1.5-.39,3.07,3.07,0,0,1,2.48-.25A1.94,1.94,0,0,1,263.3,76a5,5,0,0,1-.26,1.63,6.19,6.19,0,0,1-.73,1.51,7.33,7.33,0,0,1-1.12,1.31A6.57,6.57,0,0,1,259.83,81.5Z"/></g></g><g id="psd"><path class="cls-53" d="M129.73,107.7l-18.87,13.7c-2.41,1.4-8.13-2.53-8.13-5.31V92.26a9.68,9.68,0,0,1,4.36-7.57l20.64-11.91c2.41-1.39,8.43,1.47,8.46,4l-2.09,23.4A9.69,9.69,0,0,1,129.73,107.7Z"/><path class="cls-11" d="M104,88a8.89,8.89,0,0,0-1.27,4.29v23.83c0,2.78,5.72,6.71,8.13,5.31l18.87-13.7a9,9,0,0,0,3.14-3.35C124,99.3,113.42,92.26,104,88Z"/><path class="cls-11" d="M104,88a8.89,8.89,0,0,0-1.27,4.29v23.83c0,2.78,5.72,6.71,8.13,5.31l18.87-13.7a9,9,0,0,0,3.14-3.35C124,99.3,113.42,92.26,104,88Z"/><path class="cls-54" d="M104,88a8.89,8.89,0,0,0-1.27,4.29v23.83c0,2.78,5.72,6.71,8.13,5.31l18.87-13.7a9,9,0,0,0,3.14-3.35C124,99.3,113.42,92.26,104,88Z"/><path class="cls-11" d="M132.05,109.24l-20.64,11.91c-2.41,1.4-4.37.27-4.37-2.52V94.8a9.66,9.66,0,0,1,4.37-7.56l20.64-11.91c2.41-1.4,4.36-.27,4.36,2.52v23.83A9.62,9.62,0,0,1,132.05,109.24Z"/><text class="cls-55" transform="matrix(0.87, -0.5, 0, 1, 109.86, 109.91)">PSD</text></g><g id="html"><path class="cls-56" d="M199.52,75.7,180.66,89.4c-2.41,1.4-8.14-2.53-8.14-5.31V60.26a9.63,9.63,0,0,1,4.37-7.57l20.63-11.91c2.41-1.39,8.43,1.47,8.46,3.95l-2.09,23.4A9.63,9.63,0,0,1,199.52,75.7Z"/><path class="cls-8" d="M173.79,56a8.89,8.89,0,0,0-1.27,4.29v23.8c0,2.78,5.73,6.71,8.14,5.31l18.86-13.7a8.94,8.94,0,0,0,3.14-3.35C193.74,67.3,183.21,60.26,173.79,56Z"/><path class="cls-57" d="M173.79,56a8.89,8.89,0,0,0-1.27,4.29v23.8c0,2.78,5.73,6.71,8.14,5.31l18.86-13.7a8.94,8.94,0,0,0,3.14-3.35C193.74,67.3,183.21,60.26,173.79,56Z"/><path class="cls-58" d="M201.84,77.24,181.2,89.15c-2.41,1.4-4.36.27-4.36-2.52V62.8a9.66,9.66,0,0,1,4.37-7.56l20.64-11.91c2.41-1.4,4.37-.27,4.37,2.52V69.68A9.67,9.67,0,0,1,201.84,77.24Z"/><text class="cls-59" transform="matrix(0.87, -0.5, 0, 1, 178.94, 76.62)">HTM<tspan class="cls-60" x="20.84" y="0">L</tspan></text></g><g id="node"><path class="cls-7" d="M75.44,165.21a9,9,0,0,0-1.27,4.29v23.83c0,2.78,5.73,6.71,8.14,5.32l18.87-13.71a8.84,8.84,0,0,0,3.13-3.35C95.4,176.54,84.86,169.5,75.44,165.21Z"/><path class="cls-50" d="M101.18,184.94,82.31,198.65c-2.41,1.39-8.14-2.54-8.14-5.32V169.5a9.66,9.66,0,0,1,4.37-7.56L99.18,150c2.41-1.39,8.43,1.47,8.45,3.95l-2.08,23.4A9.66,9.66,0,0,1,101.18,184.94Z"/><path class="cls-7" d="M75.44,165.21a9,9,0,0,0-1.27,4.29v23.83c0,2.78,5.73,6.71,8.14,5.32l18.87-13.71a8.84,8.84,0,0,0,3.13-3.35C95.4,176.54,84.86,169.5,75.44,165.21Z"/><path class="cls-51" d="M75.44,165.21a9,9,0,0,0-1.27,4.29v23.83c0,2.78,5.73,6.71,8.14,5.32l18.87-13.71a8.84,8.84,0,0,0,3.13-3.35C95.4,176.54,84.86,169.5,75.44,165.21Z"/><path class="cls-7" d="M103.5,186.48,82.86,198.4c-2.41,1.39-4.37.26-4.37-2.53V172.05a9.66,9.66,0,0,1,4.37-7.57l20.63-11.91c2.42-1.4,4.37-.27,4.37,2.52v23.83A9.67,9.67,0,0,1,103.5,186.48Z"/><g class="cls-46"><path class="cls-52" d="M83.7,186q-.15.09-.24,0c-.07,0-.1-.11-.1-.22v-7a.66.66,0,0,1,.1-.34.62.62,0,0,1,.24-.24.21.21,0,0,1,.26,0l4.16,3.89v-6a.69.69,0,0,1,.09-.34.75.75,0,0,1,.25-.25.27.27,0,0,1,.24,0,.25.25,0,0,1,.1.23v7a.7.7,0,0,1-.1.33.72.72,0,0,1-.24.25.48.48,0,0,1-.14.05.1.1,0,0,1-.11,0L84,179.44v6a.74.74,0,0,1-.1.34A.69.69,0,0,1,83.7,186Z"/><path class="cls-52" d="M92.36,181.12a2.2,2.2,0,0,1-1.24.35,1.1,1.1,0,0,1-.86-.49,2.17,2.17,0,0,1-.31-1.26,4.42,4.42,0,0,1,.31-1.61,5.41,5.41,0,0,1,.86-1.49,4.45,4.45,0,0,1,1.24-1.07,2.18,2.18,0,0,1,1.24-.36,1.11,1.11,0,0,1,.86.5,2.17,2.17,0,0,1,.32,1.26,4.42,4.42,0,0,1-.31,1.61A5.65,5.65,0,0,1,93.6,180,4.37,4.37,0,0,1,92.36,181.12Zm0-.7a3.26,3.26,0,0,0,.91-.8,4.08,4.08,0,0,0,.63-1.09,3.43,3.43,0,0,0,.22-1.2,1.74,1.74,0,0,0-.22-1,.81.81,0,0,0-.63-.38,1.48,1.48,0,0,0-.91.25,3.16,3.16,0,0,0-.9.79,3.88,3.88,0,0,0-.63,1.1,3.28,3.28,0,0,0-.23,1.21,1.62,1.62,0,0,0,.23.94.85.85,0,0,0,.63.38A1.58,1.58,0,0,0,92.36,180.42Z"/><path class="cls-52" d="M98,177.88a2.17,2.17,0,0,1-1.23.34,1.13,1.13,0,0,1-.87-.5,2.13,2.13,0,0,1-.32-1.24,4.59,4.59,0,0,1,.31-1.6,5.84,5.84,0,0,1,.84-1.48,4.08,4.08,0,0,1,1.2-1.05,2,2,0,0,1,1-.32,1,1,0,0,1,.76.32v-2.94a.59.59,0,0,1,.1-.34.64.64,0,0,1,.24-.25q.15-.09.24,0c.07,0,.1.11.1.23v4.72a4.41,4.41,0,0,1-.34,1.59,5.21,5.21,0,0,1-.86,1.48A4.38,4.38,0,0,1,98,177.88Zm0-.7a3.09,3.09,0,0,0,.9-.8,4.14,4.14,0,0,0,.63-1.1,3.4,3.4,0,0,0,.23-1.2,1.7,1.7,0,0,0-.23-.94.86.86,0,0,0-.63-.38,1.47,1.47,0,0,0-.9.25,3.28,3.28,0,0,0-.9.78,4.32,4.32,0,0,0-.63,1.11,3.29,3.29,0,0,0-.24,1.2,1.61,1.61,0,0,0,.24.94.88.88,0,0,0,.63.38A1.49,1.49,0,0,0,98,177.18Z"/><path class="cls-52" d="M103.89,174.49a2.19,2.19,0,0,1-1.25.36,1.1,1.1,0,0,1-.85-.49,2.2,2.2,0,0,1-.31-1.26,4.77,4.77,0,0,1,.29-1.62,5.51,5.51,0,0,1,.81-1.44,3.87,3.87,0,0,1,1.18-1,1.87,1.87,0,0,1,1.15-.32,1,1,0,0,1,.76.52,2.39,2.39,0,0,1,.27,1.23.58.58,0,0,1-.08.31.69.69,0,0,1-.23.22l-3.7,2.12v-.63l3.77-2.17-.37.53a1.94,1.94,0,0,0-.19-.94.73.73,0,0,0-.54-.41,1.31,1.31,0,0,0-.84.23,2.88,2.88,0,0,0-.87.77,3.82,3.82,0,0,0-.58,1.07,3.87,3.87,0,0,0-.2,1.2,1.61,1.61,0,0,0,.23,1,.82.82,0,0,0,.63.38,1.55,1.55,0,0,0,.92-.26,3,3,0,0,0,.63-.49,3.39,3.39,0,0,0,.51-.6.66.66,0,0,1,.22-.22.25.25,0,0,1,.21-.05.2.2,0,0,1,.11.19.49.49,0,0,1-.1.3,5.2,5.2,0,0,1-.73.89A4.35,4.35,0,0,1,103.89,174.49Z"/></g></g><g id="web" class="cls-3"><polygon class="cls-9" points="174.36 206.87 104.36 248.18 103.52 247.76 103.52 196.64 174.36 155.75 175.18 156.17 174.36 206.87"/><polygon class="cls-6" points="175.2 207.28 104.36 248.18 104.36 197.06 175.2 156.16 175.2 207.28"/><polygon class="cls-11" points="175.2 161.09 104.36 201.99 104.36 197.06 175.2 156.16 175.2 161.09"/><polygon class="cls-61" points="138.42 190.31 110.84 206.24 110.84 205.14 138.42 189.21 138.42 190.31"/><polygon class="cls-61" points="138.42 195.06 110.84 210.98 110.84 209.88 138.42 193.96 138.42 195.06"/><polygon class="cls-61" points="138.42 199.8 110.84 215.72 110.84 214.62 138.42 198.7 138.42 199.8"/><polygon class="cls-61" points="138.42 204.54 110.84 220.47 110.84 219.37 138.42 203.44 138.42 204.54"/><polygon class="cls-61" points="138.42 209.28 110.84 225.21 110.84 224.11 138.42 208.18 138.42 209.28"/><polygon class="cls-62" points="169.05 202.71 145.9 216.07 145.89 183.65 169.05 170.28 169.05 202.71"/><polygon class="cls-61" points="138.42 214.03 110.84 229.95 110.84 228.85 138.42 212.93 138.42 214.03"/></g><g id="code1" class="cls-3"><polygon class="cls-4" points="323.79 153.48 253.79 194.8 252.95 194.38 252.95 143.25 323.78 102.36 324.61 102.78 323.79 153.48"/><polygon class="cls-5" points="324.63 153.9 253.79 194.8 253.79 143.68 324.63 102.78 324.63 153.9"/><polygon class="cls-6" points="260.44 149.27 258.47 150.41 258.47 148.8 260.44 147.66 260.44 149.27"/><polygon class="cls-11" points="289.26 132.63 262.63 148 262.63 146.39 289.26 131.02 289.26 132.63"/><polygon class="cls-6" points="260.44 153.05 258.47 154.19 258.47 152.58 260.44 151.44 260.44 153.05"/><polygon class="cls-11" points="274.93 144.68 262.63 151.78 262.63 150.17 274.93 143.07 274.93 144.68"/><polygon class="cls-6" points="260.44 156.83 258.47 157.97 258.47 156.36 260.44 155.22 260.44 156.83"/><polygon class="cls-11" points="281.29 144.79 262.63 155.56 262.63 153.95 281.29 143.18 281.29 144.79"/><polygon class="cls-6" points="260.44 160.61 258.47 161.75 258.47 160.14 260.44 159 260.44 160.61"/><polygon class="cls-11" points="284.91 146.49 262.63 159.34 262.63 157.73 284.91 144.87 284.91 146.49"/><polygon class="cls-6" points="260.44 166.11 258.47 167.25 258.47 165.63 260.44 164.5 260.44 166.11"/><polygon class="cls-7" points="276.74 156.7 262.63 164.84 262.63 163.23 276.74 155.09 276.74 156.7"/><polygon class="cls-6" points="260.44 169.89 258.47 171.03 258.47 169.41 260.44 168.28 260.44 169.89"/><polygon class="cls-7" points="288.52 153.68 262.64 168.62 262.63 167.01 288.52 152.07 288.52 153.68"/><polygon class="cls-6" points="260.44 173.67 258.47 174.81 258.47 173.19 260.44 172.06 260.44 173.67"/><polygon class="cls-7" points="272.84 166.51 262.64 172.4 262.64 170.79 272.84 164.9 272.84 166.51"/><polygon class="cls-6" points="260.44 177.45 258.47 178.59 258.47 176.98 260.44 175.84 260.44 177.45"/><polygon class="cls-7" points="280.88 165.65 262.64 176.18 262.64 174.57 280.88 164.04 280.88 165.65"/><polygon class="cls-6" points="302.39 124.67 303.9 123.8 303.9 122.57 302.39 123.44 302.39 124.67"/><polygon class="cls-6" points="316.02 115.57 305.57 121.6 305.57 122.83 316.02 116.8 316.02 115.57"/><polygon class="cls-6" points="302.39 127.55 303.9 126.68 303.9 125.45 302.39 126.32 302.39 127.55"/><polygon class="cls-6" points="310.4 121.7 305.57 124.49 305.57 125.72 310.4 122.93 310.4 121.7"/><polygon class="cls-6" points="302.39 130.43 303.9 129.56 303.9 128.34 302.39 129.2 302.39 130.43"/><polygon class="cls-6" points="312.9 123.14 305.57 127.37 305.57 128.6 312.9 124.37 312.9 123.14"/><polygon class="cls-6" points="302.39 133.32 303.9 132.45 303.9 131.22 302.39 132.09 302.39 133.32"/><polygon class="cls-6" points="314.31 125.2 305.57 130.25 305.57 131.48 314.31 126.43 314.31 125.2"/><polygon class="cls-6" points="302.39 137.51 303.9 136.64 303.9 135.41 302.39 136.28 302.39 137.51"/><polygon class="cls-6" points="312.38 130.51 305.57 134.45 305.57 135.68 312.38 131.74 312.38 130.51"/><polygon class="cls-6" points="302.39 140.39 303.9 139.53 303.9 138.3 302.39 139.16 302.39 140.39"/><polygon class="cls-6" points="305.57 137.33 305.57 138.56 318.07 131.34 318.07 130.11 305.57 137.33"/><polygon class="cls-6" points="302.39 143.28 303.9 142.41 303.9 141.18 302.39 142.05 302.39 143.28"/><polygon class="cls-6" points="310.5 137.37 305.57 140.21 305.57 141.44 310.5 138.6 310.5 137.37"/><polygon class="cls-6" points="302.39 146.16 303.9 145.29 303.9 144.06 302.39 144.93 302.39 146.16"/><polygon class="cls-6" points="305.57 144.32 314.39 139.24 314.39 138.01 305.57 143.09 305.57 144.32"/></g><g id="css"><path class="cls-56" d="M149,226l-18.86,13.71c-2.42,1.39-8.14-2.53-8.14-5.32V210.6a9.65,9.65,0,0,1,4.4-7.6L147,191.13c2.41-1.4,8.43,1.46,8.46,3.94l-2.09,23.41A9.64,9.64,0,0,1,149,226Z"/><path class="cls-8" d="M123.31,206.31A8.8,8.8,0,0,0,122,210.6v23.83c0,2.79,5.72,6.71,8.14,5.32L149,226a9,9,0,0,0,3.14-3.35C143.26,217.64,132.73,210.6,123.31,206.31Z"/><path class="cls-57" d="M123.31,206.31A8.8,8.8,0,0,0,122,210.6v23.83c0,2.79,5.72,6.71,8.14,5.32L149,226a9,9,0,0,0,3.14-3.35C143.26,217.64,132.73,210.6,123.31,206.31Z"/><path class="cls-58" d="M151.36,227.59,130.72,239.5c-2.41,1.39-4.37.26-4.37-2.52V213.15a9.68,9.68,0,0,1,4.37-7.57l20.64-11.91c2.41-1.39,4.36-.26,4.36,2.52V220A9.67,9.67,0,0,1,151.36,227.59Z"/><text class="cls-63" transform="matrix(0.87, -0.5, 0, 1, 130.77, 227.23)">CSS</text></g><g id="php"><path class="cls-53" d="M310.42,124.52l-18.87,13.71c-2.41,1.39-8.13-2.53-8.13-5.31V109.09a9.66,9.66,0,0,1,4.37-7.57l20.64-11.91c2.41-1.39,8.43,1.47,8.46,3.94L314.79,117A9.64,9.64,0,0,1,310.42,124.52Z"/><path class="cls-11" d="M284.69,104.8a8.8,8.8,0,0,0-1.28,4.29v23.83c0,2.78,5.72,6.7,8.13,5.31l18.87-13.71a9.06,9.06,0,0,0,3.14-3.34C304.64,116.13,294.11,109.09,284.69,104.8Z"/><path class="cls-11" d="M284.69,104.8a8.8,8.8,0,0,0-1.28,4.29v23.83c0,2.78,5.72,6.7,8.13,5.31l18.87-13.71a9.06,9.06,0,0,0,3.14-3.34C304.64,116.13,294.11,109.09,284.69,104.8Z"/><path class="cls-54" d="M284.69,104.8a8.8,8.8,0,0,0-1.28,4.29v23.83c0,2.78,5.72,6.7,8.13,5.31l18.87-13.71a9.06,9.06,0,0,0,3.14-3.34C304.64,116.13,294.11,109.09,284.69,104.8Z"/><path class="cls-11" d="M312.74,126.07,292.1,138c-2.41,1.39-4.37.27-4.37-2.52V111.63a9.66,9.66,0,0,1,4.37-7.56l20.64-11.92c2.41-1.39,4.36-.26,4.36,2.53V118.5A9.64,9.64,0,0,1,312.74,126.07Z"/><g class="cls-46"><text class="cls-64" transform="matrix(0.87, -0.5, 0, 1, 285.4, 128.78)"><tspan xml:space="preserve">   </tspan></text><text class="cls-65" transform="matrix(0.87, -0.5, 0, 1, 291.66, 125.18)">PH<tspan class="cls-66" x="17.87" y="0">P</tspan></text></g></g></svg>